<svg width="512" height="512" viewBox="0 0 512 512" fill="none" xmlns="http://www.w3.org/2000/svg">
    <g clip-path="url(#clip0_332_489)">
        <path
            d="M123.754 338.687V58.9604H179.3C208.072 58.9604 230.45 64.9546 246.434 76.9429C262.419 88.9312 270.411 105.581 270.411 126.894C270.411 142.612 265.749 156.066 256.425 167.255C247.1 178.177 234.046 185.637 217.263 189.633V192.031C240.174 194.961 258.023 202.953 270.811 216.007C283.864 228.795 290.391 245.045 290.391 264.759C290.391 287.937 281.467 306.054 263.618 319.106C245.768 332.159 220.726 338.687 188.491 338.687H123.754ZM179.7 68.5511H150.928V188.434H179.3C221.392 188.434 242.438 168.454 242.438 128.493C242.438 88.5316 221.525 68.5511 179.7 68.5511ZM188.491 198.025H150.928V329.097H188.491C237.243 329.097 261.62 307.252 261.62 263.561C261.62 219.87 237.243 198.025 188.491 198.025Z"
            fill="#28638A" />
        <path
            d="M253.134 320.53L255.532 296.553H257.929C268.319 305.61 280.041 312.672 293.095 317.733C306.149 322.793 319.07 325.325 331.857 325.325C349.974 325.325 364.625 320.396 375.814 310.54C387.003 300.415 392.598 286.963 392.598 270.179C392.598 260.854 390.466 252.197 386.204 244.204C382.208 236.212 375.415 228.087 365.824 219.828C356.499 211.57 343.58 202.645 327.062 193.054C315.607 186.394 304.684 179.468 294.294 172.275C283.904 164.815 275.379 156.29 268.719 146.7C262.059 136.843 258.729 125.121 258.729 111.534C258.729 91.2873 266.055 75.0362 280.707 62.7817C295.359 50.2604 314.674 44 338.651 44C349.306 44 360.763 45.1988 373.017 47.5965C385.271 49.7278 394.73 52.5251 401.389 55.9883L399.391 78.3664H396.994C381.808 61.8491 362.362 53.5906 338.651 53.5906C321.602 53.5906 307.881 57.9863 297.491 66.7777C287.101 75.3029 281.906 86.8915 281.906 101.544C281.906 112.467 284.703 121.924 290.298 129.916C296.159 137.642 303.618 144.702 312.676 151.095C321.733 157.223 331.458 163.217 341.847 169.078C353.836 176.005 365.424 183.33 376.613 191.056C388.068 198.782 397.393 208.106 404.586 219.029C412.044 229.685 415.775 243.139 415.775 259.39C415.775 274.309 412.313 287.497 405.385 298.951C398.458 310.14 388.602 318.932 375.814 325.325C363.292 331.719 348.641 334.916 331.857 334.916C321.202 334.916 308.68 333.583 294.294 330.92C279.908 328.257 266.188 324.791 253.134 320.53Z"
            fill="#28638A" />
        <path
            d="M124.138 443V440.376H124.842C125.823 440.376 126.698 440.291 127.466 440.12C128.234 439.949 128.853 439.651 129.322 439.224C129.791 438.755 130.026 438.157 130.026 437.432V402.488C130.026 401.848 129.791 401.379 129.322 401.08C128.853 400.739 128.234 400.504 127.466 400.376C126.698 400.248 125.823 400.184 124.842 400.184H124.138V397.56H138.794L151.786 438.008L150.634 437.88L164.138 397.56H178.538V400.184H177.962C176.469 400.184 175.21 400.333 174.186 400.632C173.162 400.931 172.65 401.549 172.65 402.488V438.072C172.65 439.011 173.162 439.629 174.186 439.928C175.21 440.227 176.469 440.376 177.962 440.376H178.538V443H161.194V440.376H161.77C162.538 440.376 163.285 440.355 164.01 440.312C164.778 440.269 165.418 440.205 165.93 440.12C166.442 439.992 166.698 439.864 166.698 439.736V398.52L167.338 398.648L152.106 443.128H148.202L132.97 398.648L133.674 398.712V439.224C133.674 439.48 133.93 439.715 134.442 439.928C134.954 440.099 135.594 440.227 136.362 440.312C137.173 440.355 137.962 440.376 138.73 440.376H139.306V443H124.138ZM198.032 424.12H217.04L217.104 427.192H197.456L198.032 424.12ZM206.48 400.184L207.696 401.528L194.704 439.096C194.704 439.352 194.917 439.587 195.344 439.8C195.813 439.971 196.411 440.12 197.136 440.248C197.904 440.333 198.736 440.376 199.632 440.376H200.912V443H186.768V440.376H187.152C188.261 440.376 189.179 440.163 189.904 439.736C190.672 439.309 191.269 438.477 191.696 437.24L205.52 397.56H211.344L225.744 438.456C226.043 439.309 226.533 439.843 227.216 440.056C227.941 440.269 228.816 440.376 229.84 440.376H230.16V443H213.904V440.376H214.928C215.739 440.376 216.549 440.355 217.36 440.312C218.171 440.269 218.832 440.205 219.344 440.12C219.899 439.992 220.176 439.864 220.176 439.736L206.48 400.184ZM258.061 440.376C259.981 440.376 261.667 440.099 263.117 439.544C264.568 438.947 265.699 438.029 266.509 436.792C267.363 435.555 267.789 433.955 267.789 431.992C267.789 430.328 267.427 428.941 266.701 427.832C266.019 426.723 265.08 425.827 263.885 425.144C262.733 424.419 261.411 423.821 259.917 423.352C258.424 422.84 256.867 422.349 255.245 421.88C253.539 421.411 251.853 420.877 250.189 420.28C248.568 419.64 247.096 418.829 245.773 417.848C244.451 416.867 243.384 415.629 242.573 414.136C241.805 412.643 241.421 410.787 241.421 408.568C241.421 406.179 242.019 404.131 243.213 402.424C244.408 400.675 246.008 399.331 248.013 398.392C250.061 397.411 252.323 396.92 254.797 396.92C256.888 396.92 258.787 397.24 260.493 397.88C262.243 398.52 263.779 399.523 265.101 400.888C266.424 402.253 267.533 404.067 268.429 406.328L266.189 405.752L267.021 397.56H270.221V409.4H266.765C266.211 407.48 265.379 405.837 264.269 404.472C263.16 403.107 261.837 402.061 260.301 401.336C258.808 400.568 257.144 400.184 255.309 400.184C253.432 400.184 251.832 400.504 250.509 401.144C249.229 401.741 248.227 402.595 247.501 403.704C246.819 404.813 246.477 406.157 246.477 407.736C246.477 409.229 246.819 410.488 247.501 411.512C248.184 412.493 249.08 413.325 250.189 414.008C251.341 414.648 252.664 415.203 254.157 415.672C255.651 416.141 257.187 416.589 258.765 417.016C260.557 417.485 262.307 418.04 264.013 418.68C265.72 419.32 267.256 420.131 268.621 421.112C270.029 422.093 271.139 423.352 271.949 424.888C272.76 426.381 273.165 428.28 273.165 430.584C273.165 433.315 272.483 435.661 271.117 437.624C269.752 439.587 267.939 441.08 265.677 442.104C263.416 443.128 260.963 443.64 258.317 443.64C255.8 443.64 253.432 443.256 251.213 442.488C249.037 441.677 247.117 440.44 245.453 438.776C243.832 437.112 242.595 434.936 241.741 432.248L244.237 433.208L243.405 443H239.949V428.92H243.405C244.131 431.309 245.176 433.357 246.541 435.064C247.907 436.771 249.549 438.093 251.469 439.032C253.432 439.928 255.629 440.376 258.061 440.376ZM298.231 438.072V400.696H294.391C292.557 400.696 291.063 400.781 289.911 400.952C288.759 401.08 287.906 401.379 287.351 401.848C286.797 402.275 286.455 402.893 286.327 403.704L285.559 409.848H282.551V397.56H319.799V409.848H316.792L316.023 403.704C315.938 402.893 315.597 402.275 315 401.848C314.445 401.379 313.591 401.08 312.439 400.952C311.287 400.781 309.794 400.696 307.959 400.696H304.183V438.072C304.183 439.011 304.695 439.629 305.719 439.928C306.743 440.227 308.002 440.376 309.495 440.376H310.519V443H291.831V440.376H292.855C294.391 440.376 295.671 440.227 296.695 439.928C297.719 439.629 298.231 439.011 298.231 438.072ZM363.978 429.368V443H329.93V440.376H330.506C332 440.376 333.258 440.227 334.282 439.928C335.306 439.629 335.818 439.011 335.818 438.072V402.488C335.818 401.549 335.306 400.931 334.282 400.632C333.258 400.333 332 400.184 330.506 400.184H329.93V397.56H362.25V409.592H359.242L358.41 403.832C358.325 403.021 357.984 402.403 357.386 401.976C356.832 401.507 355.978 401.187 354.826 401.016C353.717 400.845 352.245 400.76 350.41 400.76H341.77V439.8H352.01C353.376 439.8 354.549 439.757 355.53 439.672C356.554 439.544 357.386 439.373 358.026 439.16C358.666 438.904 359.136 438.584 359.434 438.2C359.776 437.773 359.989 437.261 360.074 436.664L360.842 429.368H363.978ZM340.298 418.296C342.304 418.253 344.202 418.211 345.994 418.168C347.786 418.083 349.514 417.997 351.178 417.912C352.885 417.784 354.57 417.656 356.234 417.528V422.072C354.57 421.859 352.885 421.709 351.178 421.624C349.514 421.496 347.786 421.411 345.994 421.368C344.202 421.283 342.304 421.219 340.298 421.176V418.296ZM395.264 422.264L400.96 421.304L410.432 438.52C410.731 439.075 411.072 439.48 411.456 439.736C411.883 439.992 412.395 440.163 412.992 440.248C413.589 440.333 414.251 440.376 414.976 440.376H415.424V443H405.952L395.264 422.264ZM387.328 439.736C387.328 439.864 387.477 439.971 387.776 440.056C388.075 440.099 388.459 440.163 388.928 440.248C389.44 440.291 389.995 440.333 390.592 440.376C391.189 440.376 391.765 440.376 392.32 440.376H393.152V443H375.488V440.376H376.064C377.557 440.376 378.816 440.227 379.84 439.928C380.864 439.629 381.376 439.011 381.376 438.072V402.488C381.376 401.549 380.864 400.931 379.84 400.632C378.816 400.333 377.557 400.184 376.064 400.184H375.488V397.56H393.792C397.248 397.56 400.192 398.115 402.624 399.224C405.099 400.291 406.997 401.784 408.32 403.704C409.643 405.624 410.304 407.864 410.304 410.424C410.304 412.6 409.813 414.541 408.832 416.248C407.893 417.912 406.528 419.32 404.736 420.472C402.944 421.581 400.789 422.371 398.272 422.84C397.803 422.925 397.291 423.011 396.736 423.096C396.224 423.139 395.669 423.181 395.072 423.224C394.517 423.267 393.963 423.288 393.408 423.288H386.048V420.216H393.408C395.883 420.216 397.888 419.832 399.424 419.064C400.96 418.296 402.091 417.187 402.816 415.736C403.584 414.243 403.968 412.472 403.968 410.424C403.968 408.461 403.584 406.755 402.816 405.304C402.048 403.853 400.896 402.744 399.36 401.976C397.867 401.165 395.968 400.76 393.664 400.76H387.328V439.736Z"
            fill="#28638A" />
    </g>
    <defs>
        <clipPath id="clip0_332_489">
            <rect width="512" height="512" fill="white" />
        </clipPath>
    </defs>
</svg>
